<svg width="139" height="45" viewBox="0 0 139 45" fill="none" xmlns="http://www.w3.org/2000/svg">
<path d="M38.9419 27.6994L40.3988 27.5006C40.3988 25.3838 40.1231 23.4544 39.5719 21.7106C39.0187 19.9688 38.2481 18.4912 37.2562 17.2781C36.2644 16.065 35.0737 15.1181 33.6825 14.4338C32.2931 13.7513 30.7369 13.4081 29.0175 13.4081C26.9006 13.4081 24.9919 13.8056 23.295 14.5987C21.5963 15.3919 20.1262 16.5169 18.8812 17.9737C17.6381 19.4306 16.6781 21.1725 16.0031 23.2012C15.3281 25.2319 14.9906 27.5025 14.9906 30.0169C14.9906 32.1787 15.3281 34.1531 16.0031 35.9381C16.6781 37.725 17.6381 39.2456 18.8812 40.5037C19.2019 40.8281 19.5394 41.1338 19.8919 41.4225H3.705V0H0V43.6706H23.8762C25.4231 44.2256 27.1369 44.505 29.0156 44.505C31.3088 44.505 33.4931 43.8769 35.5669 42.6187C37.6388 41.3606 39.2494 39.675 40.3969 37.5562V37.1587H40.065C38.6531 38.4375 37.0988 39.4631 35.4 40.2356C33.7013 41.0081 32.145 41.3944 30.735 41.3944C28.8375 41.3944 27.1181 41.0644 25.575 40.4025C24.03 39.7406 22.7081 38.8144 21.6056 37.6237C20.5031 36.4331 19.665 34.9894 19.0913 33.2906C18.5175 31.5919 18.2531 29.73 18.2981 27.6994H38.9419ZM21.5737 18.0375C23.3156 16.1419 25.5112 15.1931 28.1569 15.1931C30.6712 15.1931 32.7544 16.1531 34.41 18.0713C36.0638 19.9913 37.0238 22.56 37.2881 25.7794H18.4294C18.7819 22.515 19.83 19.935 21.5737 18.0375Z" fill="#C6B9AC"/>
<path d="M65.1825 42.5252C63.2269 43.0633 61.2806 43.3315 59.3438 43.3315C57.1556 43.3315 55.1644 42.9283 53.37 42.1202C51.5756 41.314 50.0419 40.1833 48.7688 38.7302C47.4938 37.2771 46.5075 35.5202 45.8081 33.4558C45.1087 31.3933 44.7581 29.1058 44.7581 26.5952C44.7581 24.1202 45.1256 21.8683 45.8606 19.8415C46.5956 17.8146 47.6363 16.0746 48.9806 14.6215C50.3269 13.1683 51.93 12.0471 53.7975 11.2577C55.6631 10.4683 57.7444 10.0746 60.0394 10.0746C61.8675 10.0746 63.6262 10.3352 65.3137 10.8546C66.9994 11.3758 68.3625 12.0658 69.4031 12.9265L71.0175 10.9896C70.0838 10.2002 68.6138 9.57209 66.6056 9.10709C64.5956 8.64209 62.4094 8.40771 60.0413 8.40771C57.2775 8.40771 54.7669 8.86522 52.5075 9.78022C50.2463 10.6952 48.3112 11.9965 46.6969 13.6821C45.0825 15.3677 43.8356 17.3946 42.9563 19.7627C42.0769 22.1308 41.6381 24.7483 41.6381 27.619C41.6381 30.2383 42.06 32.614 42.9038 34.7496C43.7456 36.8852 44.9494 38.7133 46.5094 40.2377C48.0694 41.764 49.935 42.9377 52.1062 43.7627C54.2756 44.5877 56.6888 45.0002 59.3438 45.0002C61.8188 45.0002 64.1588 44.749 66.3656 44.2465C68.5725 43.744 70.2675 43.0802 71.4506 42.2552L70.0519 40.3183C68.7619 41.2521 67.1381 41.9871 65.1825 42.5252Z" fill="#C6B9AC"/>
<path d="M96.8306 42.1539C95.6831 42.1539 94.7794 41.9008 94.1175 41.3927C93.4556 40.8864 93.1256 40.2133 93.1256 39.3752V20.9139C93.1256 18.6639 92.3644 16.8677 90.8419 15.5214C89.3194 14.177 87.0375 13.5039 83.9944 13.5039C82.4063 13.5039 80.9175 13.7139 79.5281 14.132C78.1387 14.552 76.9481 15.1464 75.9544 15.9189C74.9625 16.6914 74.1769 17.5952 73.605 18.6302C73.0312 19.667 72.7444 20.7808 72.7444 21.9714C72.7444 22.8095 73.0312 23.1864 73.605 23.0964H75.855L76.185 22.7664V21.707C76.185 19.8995 76.8244 18.3995 78.1031 17.2089C79.3819 16.0183 80.9925 15.422 82.9331 15.422C85.2263 15.422 86.9456 15.9958 88.0931 17.1433C89.2406 18.2908 89.8144 19.8339 89.8144 21.7745V26.8689C83.9025 28.1495 79.4475 29.792 76.4494 31.7983C73.4494 33.8064 71.9512 35.9552 71.9512 38.2502C71.9512 40.1927 72.6337 41.7358 74.0025 42.8814C75.3694 44.0289 77.1787 44.6027 79.4287 44.6027C81.5025 44.6027 83.4525 44.2277 85.2844 43.4777C87.1144 42.7277 88.6481 41.6252 89.8838 40.1702C90.1031 41.537 90.645 42.6189 91.5038 43.412C92.3644 44.2052 93.4331 44.6027 94.7119 44.6027C95.7713 44.6027 96.7519 44.282 97.6556 43.6427C98.5594 43.0033 99.2325 42.1764 99.6731 41.162L99.54 40.9633C99.1913 41.7564 98.2875 42.1539 96.8306 42.1539ZM89.8181 28.3914V39.0452C88.8469 40.0595 87.6112 40.8208 86.1131 41.327C84.6131 41.8352 82.98 42.0883 81.2175 42.0883C79.365 42.0883 77.8875 41.6702 76.785 40.8302C75.6825 39.992 75.1313 38.867 75.1313 37.4552C75.1313 35.6477 76.3556 33.9377 78.8025 32.327C81.2513 30.7183 84.9225 29.3833 89.82 28.3239V28.3914H89.8181Z" fill="#C6B9AC"/>
<path d="M114.662 18.2589C115.236 17.1114 115.523 16.2077 115.523 15.5458C115.523 15.2383 115.324 14.9402 114.926 14.6533C114.529 14.3664 114.043 14.1133 113.469 13.8921C112.896 13.6727 112.301 13.4964 111.683 13.3633C111.064 13.2302 110.535 13.1646 110.094 13.1646H110.029C109.146 13.1646 108.176 13.7496 107.117 14.9177C106.058 16.0877 104.91 17.6646 103.676 19.6483V16.5396L100.764 16.4739L100.5 43.6014H103.742L103.676 21.0396C104.558 19.6277 105.373 18.5046 106.125 17.6646C106.875 16.8264 107.514 16.4064 108.043 16.4064C108.572 16.4064 109.168 16.4833 109.83 16.6389C110.492 16.7946 111.109 16.9821 111.683 17.2014C111.859 17.2914 112.089 17.3889 112.378 17.4995C112.665 17.6102 112.941 17.7321 113.205 17.8633C113.513 17.9964 113.844 18.1277 114.197 18.2608H114.662V18.2589Z" fill="#C6B9AC"/>
<path d="M133.755 40.3348C132.056 41.1073 130.5 41.4936 129.09 41.4936C127.192 41.4936 125.473 41.1636 123.93 40.5017C122.385 39.8398 121.063 38.9136 119.961 37.7229C118.858 36.5323 118.02 35.0886 117.446 33.3898C116.873 31.6929 116.608 29.8292 116.653 27.7986H137.297L138.754 27.5998C138.754 25.4829 138.478 23.5536 137.927 21.8098C137.374 20.0679 136.603 18.5904 135.611 17.3773C134.619 16.1642 133.429 15.2173 132.038 14.5329C130.648 13.8504 129.092 13.5073 127.373 13.5073C125.256 13.5073 123.347 13.9048 121.65 14.698C119.951 15.4911 118.479 16.6161 117.236 18.0729C115.993 19.5298 115.033 21.2717 114.358 23.3004C113.683 25.3311 113.346 27.6017 113.346 30.1161C113.346 32.2779 113.683 34.2504 114.358 36.0373C115.033 37.8242 115.993 39.3448 117.236 40.6029C118.479 41.8592 119.951 42.8417 121.65 43.5467C123.347 44.2517 125.256 44.6061 127.373 44.6061C129.666 44.6061 131.85 43.9761 133.924 42.7198C135.996 41.4617 137.606 39.7761 138.754 37.6573V37.2598H138.422C137.006 38.5367 135.452 39.5642 133.755 40.3348ZM119.925 18.1348C121.667 16.2392 123.861 15.2904 126.508 15.2904C129.023 15.2904 131.108 16.2504 132.761 18.1686C134.415 20.0886 135.375 22.6573 135.639 25.8767H116.783C117.135 22.6123 118.183 20.0342 119.925 18.1348Z" fill="#C6B9AC"/>
</svg>
